999
dxfrw 0.5.11
0
SECTION
2
HEADER
9
$ACADVER
1
AC1021
9
$HANDSEED
5
20000
9
$DWGCODEPAGE
3
ANSI_1252
9
$INSBASE
10
0
20
0
30
0
9
$EXTMIN
10
-296.943253569
20
-527.884054114
30
0
9
$EXTMAX
10
900
20
899.75
30
0
9
$LIMMIN
10
0
20
0
9
$LIMMAX
10
420
20
297
9
$ORTHOMODE
70
0
9
$LTSCALE
40
1
9
$TEXTSTYLE
7
STANDARD
9
$CLAYER
8
new
9
$DIMASZ
40
2.5
9
$DIMLFAC
40
1
9
$DIMSCALE
40
1
9
$DIMEXO
40
0.625
9
$DIMEXE
40
1.25
9
$DIMTXT
40
2.5
9
$DIMTSZ
40
0
9
$DIMAUNIT
70
0
9
$DIMADEC
70
0
9
$DIMLUNIT
70
2
9
$DIMSTYLE
2
STANDARD
9
$DIMGAP
40
0.625
9
$DIMTIH
70
0
9
$LUNITS
70
2
9
$LUPREC
70
4
9
$AUNITS
70
0
9
$AUPREC
70
2
9
$SPLINESEGS
70
8
9
$SNAPSTYLE
70
0
9
$PINSBASE
10
0
20
0
30
0
9
$PLIMMIN
10
0
20
0
9
$PLIMMAX
10
210
20
297
9
$INSUNITS
70
4
9
$PSVPSCALE
40
1
0
ENDSEC
0
SECTION
2
CLASSES
0
ENDSEC
0
SECTION
2
TABLES
0
TABLE
2
VPORT
5
8
330
0
100
AcDbSymbolTable
70
1
0
VPORT
5
31
330
2
100
AcDbSymbolTableRecord
100
AcDbViewportTableRecord
2
*ACTIVE
70
0
10
0
20
0
11
1
21
1
12
125.5
22
83.8750000001
13
0
23
0
14
10
24
10
15
10
25
10
16
0
26
0
36
1
17
0
27
0
37
0
40
189.5
41
1.69393139842
42
50
43
0
44
0
50
0
51
0
71
0
72
100
73
1
74
3
75
0
76
1
77
0
78
0
281
0
65
1
110
0
120
0
130
0
111
1
121
0
131
0
112
0
122
1
132
0
79
0
146
0
348
10020
60
7
61
5
292
1
282
1
141
0
142
0
63
250
421
3358443
0
ENDTAB
0
TABLE
2
LTYPE
5
5
330
0
100
AcDbSymbolTable
70
4
0
LTYPE
5
14
330
5
100
AcDbSymbolTableRecord
100
AcDbLinetypeTableRecord
2
ByBlock
70
0
3

72
65
73
0
40
0
0
LTYPE
5
15
330
5
100
AcDbSymbolTableRecord
100
AcDbLinetypeTableRecord
2
ByLayer
70
0
3

72
65
73
0
40
0
0
LTYPE
5
16
330
5
100
AcDbSymbolTableRecord
100
AcDbLinetypeTableRecord
2
Continuous
70
0
3
Solid line
72
65
73
0
40
0
0
LTYPE
5
32
330
5
100
AcDbSymbolTableRecord
100
AcDbLinetypeTableRecord
2
DOT
70
0
3
Dot . . . . . . . . . . . . . . . . . . . . . .
72
65
73
2
40
6.35
49
0
74
0
49
-6.35
74
0
0
LTYPE
5
33
330
5
100
AcDbSymbolTableRecord
100
AcDbLinetypeTableRecord
2
DOT2
70
0
3
Dot (.5x) .....................................
72
65
73
2
40
3.175
49
0
74
0
49
-3.175
74
0
0
LTYPE
5
34
330
5
100
AcDbSymbolTableRecord
100
AcDbLinetypeTableRecord
2
DOTX2
70
0
3
Dot (2x) .  .  .  .  .  .  .  .  .  .  .  .  .
72
65
73
2
40
12.7
49
0
74
0
49
-12.7
74
0
0
LTYPE
5
35
330
5
100
AcDbSymbolTableRecord
100
AcDbLinetypeTableRecord
2
DASHED
70
0
3
Dot . . . . . . . . . . . . . . . . . . . . . .
72
65
73
2
40
19.05
49
12.7
74
0
49
-6.35
74
0
0
LTYPE
5
36
330
5
100
AcDbSymbolTableRecord
100
AcDbLinetypeTableRecord
2
DASHED2
70
0
3
Dashed (.5x) _ _ _ _ _ _ _ _ _ _ _ _ _ _ _ _ _
72
65
73
2
40
9.525
49
6.35
74
0
49
-3.175
74
0
0
LTYPE
5
37
330
5
100
AcDbSymbolTableRecord
100
AcDbLinetypeTableRecord
2
DASHEDX2
70
0
3
Dashed (2x) ____  ____  ____  ____  ____  ___
72
65
73
2
40
38.1
49
25.4
74
0
49
-12.7
74
0
0
LTYPE
5
38
330
5
100
AcDbSymbolTableRecord
100
AcDbLinetypeTableRecord
2
DASHDOT
70
0
3
Dash dot __ . __ . __ . __ . __ . __ . __ . __
72
65
73
4
40
25.4
49
12.7
74
0
49
-6.35
74
0
49
0
74
0
49
-6.35
74
0
0
LTYPE
5
39
330
5
100
AcDbSymbolTableRecord
100
AcDbLinetypeTableRecord
2
DASHDOT2
70
0
3
Dash dot (.5x) _._._._._._._._._._._._._._._.
72
65
73
4
40
12.7
49
6.35
74
0
49
-3.175
74
0
49
0
74
0
49
-3.175
74
0
0
LTYPE
5
3A
330
5
100
AcDbSymbolTableRecord
100
AcDbLinetypeTableRecord
2
DASHDOTX2
70
0
3
Dash dot (2x) ____  .  ____  .  ____  .  ___
72
65
73
4
40
50.8
49
25.4
74
0
49
-12.7
74
0
49
0
74
0
49
-12.7
74
0
0
LTYPE
5
3B
330
5
100
AcDbSymbolTableRecord
100
AcDbLinetypeTableRecord
2
DIVIDE
70
0
3
Divide ____ . . ____ . . ____ . . ____ . . ____
72
65
73
6
40
31.75
49
12.7
74
0
49
-6.35
74
0
49
0
74
0
49
-6.35
74
0
49
0
74
0
49
-6.35
74
0
0
LTYPE
5
3C
330
5
100
AcDbSymbolTableRecord
100
AcDbLinetypeTableRecord
2
DIVIDE2
70
0
3
Divide (.5x) __..__..__..__..__..__..__..__.._
72
65
73
6
40
15.875
49
6.35
74
0
49
-3.175
74
0
49
0
74
0
49
-3.175
74
0
49
0
74
0
49
-3.175
74
0
0
LTYPE
5
3D
330
5
100
AcDbSymbolTableRecord
100
AcDbLinetypeTableRecord
2
DIVIDEX2
70
0
3
Divide (2x) ________  .  .  ________  .  .  _
72
65
73
6
40
63.5
49
25.4
74
0
49
-12.7
74
0
49
0
74
0
49
-12.7
74
0
49
0
74
0
49
-12.7
74
0
0
LTYPE
5
3E
330
5
100
AcDbSymbolTableRecord
100
AcDbLinetypeTableRecord
2
BORDER
70
0
3
Border __ __ . __ __ . __ __ . __ __ . __ __ .
72
65
73
6
40
44.45
49
12.7
74
0
49
-6.35
74
0
49
12.7
74
0
49
-6.35
74
0
49
0
74
0
49
-6.35
74
0
0
LTYPE
5
3F
330
5
100
AcDbSymbolTableRecord
100
AcDbLinetypeTableRecord
2
BORDER2
70
0
3
Border (.5x) __.__.__.__.__.__.__.__.__.__.__.
72
65
73
6
40
22.225
49
6.35
74
0
49
-3.175
74
0
49
6.35
74
0
49
-3.175
74
0
49
0
74
0
49
-3.175
74
0
0
LTYPE
5
40
330
5
100
AcDbSymbolTableRecord
100
AcDbLinetypeTableRecord
2
BORDERX2
70
0
3
Border (2x) ____  ____  .  ____  ____  .  ___
72
65
73
6
40
88.9
49
25.4
74
0
49
-12.7
74
0
49
25.4
74
0
49
-12.7
74
0
49
0
74
0
49
-12.7
74
0
0
LTYPE
5
41
330
5
100
AcDbSymbolTableRecord
100
AcDbLinetypeTableRecord
2
CENTER
70
0
3
Center ____ _ ____ _ ____ _ ____ _ ____ _ ____
72
65
73
4
40
50.8
49
31.75
74
0
49
-6.35
74
0
49
6.35
74
0
49
-6.35
74
0
0
LTYPE
5
42
330
5
100
AcDbSymbolTableRecord
100
AcDbLinetypeTableRecord
2
CENTER2
70
0
3
Center (.5x) ___ _ ___ _ ___ _ ___ _ ___ _ ___
72
65
73
4
40
28.575
49
19.05
74
0
49
-3.175
74
0
49
3.175
74
0
49
-3.175
74
0
0
LTYPE
5
43
330
5
100
AcDbSymbolTableRecord
100
AcDbLinetypeTableRecord
2
CENTERX2
70
0
3
Center (2x) ________  __  ________  __  _____
72
65
73
4
40
101.6
49
63.5
74
0
49
-12.7
74
0
49
12.7
74
0
49
-12.7
74
0
0
ENDTAB
0
TABLE
2
LAYER
5
2
330
0
100
AcDbSymbolTable
70
1
0
LAYER
5
10
330
2
100
AcDbSymbolTableRecord
100
AcDbLayerTableRecord
2
0
70
4
62
7
6
CONTINUOUS
370
0
390
F
0
LAYER
5
44
330
2
100
AcDbSymbolTableRecord
100
AcDbLayerTableRecord
2
Layer_1
70
4
62
7
6
CONTINUOUS
370
-3
390
F
0
LAYER
5
45
330
2
100
AcDbSymbolTableRecord
100
AcDbLayerTableRecord
2
new
70
0
62
6
6
CONTINUOUS
370
0
390
F
0
ENDTAB
0
TABLE
2
STYLE
5
3
330
0
100
AcDbSymbolTable
70
3
0
STYLE
5
46
330
2
100
AcDbSymbolTableRecord
100
AcDbTextStyleTableRecord
2
Standard
70
0
40
0
41
1
50
0
71
0
42
1
3
txt
4

0
ENDTAB
0
TABLE
2
VIEW
5
6
330
0
100
AcDbSymbolTable
70
0
0
ENDTAB
0
TABLE
2
UCS
5
7
330
0
100
AcDbSymbolTable
70
0
0
ENDTAB
0
TABLE
2
APPID
5
9
330
0
100
AcDbSymbolTable
70
1
0
APPID
5
12
330
9
100
AcDbSymbolTableRecord
100
AcDbRegAppTableRecord
2
ACAD
70
0
0
ENDTAB
0
TABLE
2
DIMSTYLE
5
A
330
0
100
AcDbSymbolTable
70
1
100
AcDbDimStyleTable
71
1
0
DIMSTYLE
105
47
330
A
100
AcDbSymbolTableRecord
100
AcDbDimStyleTableRecord
2
Standard
70
0
40
1
41
2.5
42
0.625
43
0.38
44
1.25
45
0
46
0
47
0
48
0
140
2.5
141
0.09
142
0
143
25.4
144
1
145
0
146
1
147
0.625
148
0
71
0
72
0
73
0
74
1
75
0
76
0
77
0
78
0
79
0
170
0
171
2
172
0
173
0
174
0
175
0
176
0
177
0
178
0
179
0
271
4
272
4
273
2
274
2
275
0
276
0
277
2
278
46
279
0
280
0
281
0
282
0
283
1
284
0
285
0
286
0
288
0
289
3
340
Standard
341

371
-2
372
-2
0
ENDTAB
0
TABLE
2
BLOCK_RECORD
5
1
330
0
100
AcDbSymbolTable
70
2
0
BLOCK_RECORD
5
1F
330
1
100
AcDbSymbolTableRecord
100
AcDbBlockTableRecord
2
*Model_Space
70
0
280
1
281
0
0
BLOCK_RECORD
5
1E
330
1
100
AcDbSymbolTableRecord
100
AcDbBlockTableRecord
2
*Paper_Space
70
0
280
1
281
0
0
BLOCK_RECORD
5
48
330
1
100
AcDbSymbolTableRecord
100
AcDbBlockTableRecord
2
*D2
70
0
280
1
281
0
0
BLOCK_RECORD
5
4B
330
1
100
AcDbSymbolTableRecord
100
AcDbBlockTableRecord
2
*D1
70
0
280
1
281
0
0
BLOCK_RECORD
5
4E
330
1
100
AcDbSymbolTableRecord
100
AcDbBlockTableRecord
2
*D3
70
0
280
1
281
0
0
BLOCK_RECORD
5
51
330
1
100
AcDbSymbolTableRecord
100
AcDbBlockTableRecord
2
outline-0
70
0
280
1
281
0
0
ENDTAB
0
ENDSEC
0
SECTION
2
BLOCKS
0
BLOCK
5
20
330
1F
100
AcDbEntity
8
0
100
AcDbBlockBegin
2
*Model_Space
70
0
10
0
20
0
30
0
3
*Model_Space
1

0
ENDBLK
5
21
330
1F
100
AcDbEntity
8
0
100
AcDbBlockEnd
0
BLOCK
5
1C
330
1B
100
AcDbEntity
8
0
100
AcDbBlockBegin
2
*Paper_Space
70
0
10
0
20
0
30
0
3
*Paper_Space
1

0
ENDBLK
5
1D
330
1F
100
AcDbEntity
8
0
100
AcDbBlockEnd
0
BLOCK
5
49
330
48
100
AcDbEntity
8
0
100
AcDbBlockBegin
2
*D2
70
1
10
0
20
0
3
*D2
1

0
LINE
5
54
100
AcDbEntity
8
new
6
CONTINUOUS
62
7
370
0
100
AcDbLine
10
104.666675668
20
137.047055703
11
117.254101006
21
135.632951046
0
LINE
5
55
100
AcDbEntity
8
new
6
CONTINUOUS
62
7
370
0
100
AcDbLine
10
95.6825600001
20
50.9125104001
11
95.6825600001
21
116.349115026
0
ARC
5
56
100
AcDbEntity
8
new
6
CONTINUOUS
62
7
370
0
100
AcDbCircle
10
95.6825600001
20
138.056355021
40
20.4572399945
100
AcDbArc
50
270
51
353.590116519
0
SOLID
5
57
100
AcDbEntity
8
new
6
CONTINUOUS
62
7
370
0
100
AcDbTrace
10
116.011915161
20
135.77250149
30
0
11
115.991699223
21
133.238160504
31
0
12
115.1715545
22
133.381458438
32
0
13
115.1715545
23
133.381458438
33
0
0
SOLID
5
58
100
AcDbEntity
8
new
6
CONTINUOUS
62
7
370
0
100
AcDbTrace
10
95.6825600001
20
117.599115026
30
0
11
98.1524740297
21
118.167285426
31
0
12
98.2033149139
22
117.336269861
32
0
13
98.2033149139
23
117.336269861
33
0
0
MTEXT
5
59
100
AcDbEntity
8
new
6
CONTINUOUS
62
7
370
0
100
AcDbMText
10
108.900116711
20
123.270756021
30
0
40
2.5
41
5
71
8
72
1
1
84%%D
7
standard
210
0
220
0
230
1
50
41.7950582595
73
2
44
1
0
ENDBLK
5
4A
330
48
100
AcDbEntity
8
0
100
AcDbBlockEnd
0
BLOCK
5
4C
330
4B
100
AcDbEntity
8
0
100
AcDbBlockBegin
2
*D1
70
1
10
0
20
0
3
*D1
1

0
SOLID
5
5A
100
AcDbEntity
8
new
6
CONTINUOUS
62
7
370
0
100
AcDbTrace
10
202.610739419
20
93.0977754025
30
0
11
201.719120474
21
90.7253697515
31
0
12
200.998468631
22
91.1423021039
32
0
13
200.998468631
23
91.1423021039
33
0
0
LINE
5
5B
100
AcDbEntity
8
new
6
CONTINUOUS
62
7
370
0
100
AcDbLine
10
35.9201084443
20
-195.020692101
11
202.610739419
21
93.0977754025
0
MTEXT
5
5C
100
AcDbEntity
8
new
6
CONTINUOUS
62
7
370
0
100
AcDbMText
10
117.642469326
20
-50.022499699
30
0
40
2.5
41
13.8888888889
71
5
72
1
1
332.8634
7
standard
210
0
220
0
230
1
50
59.9485180974
73
2
44
1
0
ENDBLK
5
4D
330
4B
100
AcDbEntity
8
0
100
AcDbBlockEnd
0
BLOCK
5
4F
330
4E
100
AcDbEntity
8
0
100
AcDbBlockBegin
2
*D3
70
1
10
0
20
0
3
*D3
1

0
SOLID
5
5D
100
AcDbEntity
8
new
6
CONTINUOUS
62
7
370
0
100
AcDbTrace
10
96.0760521231
20
136.008782424
30
0
11
93.6830614323
21
136.843580885
31
0
12
94.0826922233
22
137.573969067
32
0
13
94.0826922233
23
137.573969067
33
0
0
LINE
5
5E
100
AcDbEntity
8
new
6
CONTINUOUS
62
7
370
0
100
AcDbLine
10
98.8887239511
20
134.46983328
11
83.1606864952
21
143.075405228
0
MTEXT
5
5F
100
AcDbEntity
8
new
6
CONTINUOUS
62
7
370
0
100
AcDbMText
10
90.5183637229
20
141.186975298
30
0
40
2.5
41
9.72222222222
71
5
72
1
1
3.2062
7
standard
210
0
220
0
230
1
50
331.314792571
73
2
44
1
0
ENDBLK
5
50
330
4E
100
AcDbEntity
8
0
100
AcDbBlockEnd
0
BLOCK
5
52
330
51
100
AcDbEntity
8
0
100
AcDbBlockBegin
2
outline-0
70
0
10
0
20
0
3
outline-0
1

0
SPLINE
5
60
100
AcDbEntity
8
Layer_1
6
ByLayer
62
7
370
-1
100
AcDbSpline
210
0
220
0
230
1
70
8
71
3
72
8
73
4
74
0
42
1e-07
43
1e-07
40
0
40
0
40
0
40
0
40
1
40
1
40
1
40
1
10
99.650946
20
0.30977
30
0
10
98.685376
20
0.412733
30
0
10
98.109654
20
0.572536
30
0
10
98.238847
20
0.701729
30
0
0
SPLINE
5
61
100
AcDbEntity
8
Layer_1
6
ByLayer
62
7
370
-1
100
AcDbSpline
210
0
220
0
230
1
70
8
71
3
72
8
73
4
74
0
42
1e-07
43
1e-07
40
0
40
0
40
0
40
0
40
1
40
1
40
1
40
1
10
98.238847
20
0.701729
30
0
10
98.305248
20
0.76813
30
0
10
98.260267
20
0.94212
30
0
10
98.138892
20
1.08837
30
0
0
SPLINE
5
62
100
AcDbEntity
8
Layer_1
6
ByLayer
62
7
370
-1
100
AcDbSpline
210
0
220
0
230
1
70
8
71
3
72
8
73
4
74
0
42
1e-07
43
1e-07
40
0
40
0
40
0
40
0
40
1
40
1
40
1
40
1
10
98.138892
20
1.08837
30
0
10
97.995853
20
1.260723
30
0
10
97.990164
20
1.35428
30
0
10
98.122721
20
1.35428
30
0
0
SPLINE
5
63
100
AcDbEntity
8
Layer_1
6
ByLayer
62
7
370
-1
100
AcDbSpline
210
0
220
0
230
1
70
8
71
3
72
8
73
4
74
0
42
1e-07
43
1e-07
40
0
40
0
40
0
40
0
40
1
40
1
40
1
40
1
10
98.122721
20
1.35428
30
0
10
98.235206
20
1.35428
30
0
10
98.124414
20
1.777811
30
0
10
97.876169
20
2.29546
30
0
0
SPLINE
5
64
100
AcDbEntity
8
Layer_1
6
ByLayer
62
7
370
-1
100
AcDbSpline
210
0
220
0
230
1
70
8
71
3
72
8
73
4
74
0
42
1e-07
43
1e-07
40
0
40
0
40
0
40
0
40
1
40
1
40
1
40
1
10
97.876169
20
2.29546
30
0
10
97.628081
20
2.813106
30
0
10
97.2841
20
3.816206
30
0
10
97.111767
20
4.524567
30
0
0
SPLINE
5
65
100
AcDbEntity
8
Layer_1
6
ByLayer
62
7
370
-1
100
AcDbSpline
210
0
220
0
230
1
70
8
71
3
72
8
73
4
74
0
42
1e-07
43
1e-07
40
0
40
0
40
0
40
0
40
1
40
1
40
1
40
1
10
97.111767
20
4.524567
30
0
10
96.343804
20
7.681214
30
0
10
96.318234
20
8.97774
30
0
10
96.441644
20
38.506095
30
0
0
SPLINE
5
66
100
AcDbEntity
8
Layer_1
6
ByLayer
62
7
370
-1
100
AcDbSpline
210
0
220
0
230
1
70
8
71
3
72
8
73
4
74
0
42
1e-07
43
1e-07
40
0
40
0
40
0
40
0
40
1
40
1
40
1
40
1
10
96.441644
20
38.506095
30
0
10
96.512056
20
55.354212
30
0
10
96.470067
20
75.680339
30
0
10
96.339105
20
88.140921
30
0
0
SPLINE
5
67
100
AcDbEntity
8
Layer_1
6
ByLayer
62
7
370
-1
100
AcDbSpline
210
0
220
0
230
1
70
8
71
3
72
8
73
4
74
0
42
1e-07
43
1e-07
40
0
40
0
40
0
40
0
40
1
40
1
40
1
40
1
10
96.339105
20
88.140921
30
0
10
96.067116
20
114.020007
30
0
10
96.067641
20
120.444189
30
0
10
96.342265
20
127.175096
30
0
0
SPLINE
5
68
100
AcDbEntity
8
Layer_1
6
ByLayer
62
7
370
-1
100
AcDbSpline
210
0
220
0
230
1
70
8
71
3
72
8
73
4
74
0
42
1e-07
43
1e-07
40
0
40
0
40
0
40
0
40
1
40
1
40
1
40
1
10
96.342265
20
127.175096
30
0
10
96.573981
20
132.854017
30
0
10
96.823754
20
134.506332
30
0
10
97.718745
20
136.280821
30
0
0
SPLINE
5
69
100
AcDbEntity
8
Layer_1
6
ByLayer
62
7
370
-1
100
AcDbSpline
210
0
220
0
230
1
70
8
71
3
72
8
73
4
74
0
42
1e-07
43
1e-07
40
0
40
0
40
0
40
0
40
1
40
1
40
1
40
1
10
97.718745
20
136.280821
30
0
10
98.636402
20
138.100254
30
0
10
98.765219
20
138.143988
30
0
10
102.198405
20
137.801689
30
0
0
SPLINE
5
6A
100
AcDbEntity
8
Layer_1
6
ByLayer
62
7
370
-1
100
AcDbSpline
210
0
220
0
230
1
70
8
71
3
72
8
73
4
74
0
42
1e-07
43
1e-07
40
0
40
0
40
0
40
0
40
1
40
1
40
1
40
1
10
102.198405
20
137.801689
30
0
10
103.805245
20
137.641482
30
0
10
105.249162
20
137.403149
30
0
10
105.407111
20
137.272065
30
0
0
SPLINE
5
6B
100
AcDbEntity
8
Layer_1
6
ByLayer
62
7
370
-1
100
AcDbSpline
210
0
220
0
230
1
70
8
71
3
72
8
73
4
74
0
42
1e-07
43
1e-07
40
0
40
0
40
0
40
0
40
1
40
1
40
1
40
1
10
105.407111
20
137.272065
30
0
10
105.656903
20
137.064758
30
0
10
105.694294
20
128.205905
30
0
10
105.694294
20
69.233632
30
0
0
SPLINE
5
6C
100
AcDbEntity
8
Layer_1
6
ByLayer
62
7
370
-1
100
AcDbSpline
210
0
220
0
230
1
70
8
71
3
72
8
73
4
74
0
42
1e-07
43
1e-07
40
0
40
0
40
0
40
0
40
1
40
1
40
1
40
1
10
105.694294
20
69.233632
30
0
10
105.694294
20
16.764415
30
0
10
105.640531
20
1.379773
30
0
10
105.456522
20
1.195764
30
0
0
SPLINE
5
6D
100
AcDbEntity
8
Layer_1
6
ByLayer
62
7
370
-1
100
AcDbSpline
210
0
220
0
230
1
70
8
71
3
72
8
73
4
74
0
42
1e-07
43
1e-07
40
0
40
0
40
0
40
0
40
1
40
1
40
1
40
1
10
105.456522
20
1.195764
30
0
10
105.325749
20
1.064991
30
0
10
104.946801
20
0.947445
30
0
10
104.614416
20
0.934551
30
0
0
SPLINE
5
6E
100
AcDbEntity
8
Layer_1
6
ByLayer
62
7
370
-1
100
AcDbSpline
210
0
220
0
230
1
70
8
71
3
72
8
73
4
74
0
42
1e-07
43
1e-07
40
0
40
0
40
0
40
0
40
1
40
1
40
1
40
1
10
104.604507
20
0.768545
30
0
10
105.196861
20
0.626491
30
0
10
105.197208
20
0.625574
30
0
10
104.703579
20
0.506609
30
0
0
SPLINE
5
6F
100
AcDbEntity
8
Layer_1
6
ByLayer
62
7
370
-1
100
AcDbSpline
210
0
220
0
230
1
70
8
71
3
72
8
73
4
74
0
42
1e-07
43
1e-07
40
0
40
0
40
0
40
0
40
1
40
1
40
1
40
1
10
104.703579
20
0.506609
30
0
10
104.104822
20
0.362308
30
0
10
100.481842
20
0.221161
30
0
10
99.650932
20
0.309761
30
0
0
LWPOLYLINE
5
70
100
AcDbEntity
8
Layer_1
6
ByLayer
62
7
370
-1
100
AcDbPolyline
90
3
70
1
43
0
10
104.614416
20
0.934551
10
104.01008
20
0.911098
10
104.604507
20
0.768545
0
SPLINE
5
71
100
AcDbEntity
8
Layer_1
6
ByLayer
62
7
370
-1
100
AcDbSpline
210
0
220
0
230
1
70
8
71
3
72
8
73
4
74
0
42
1e-07
43
1e-07
40
0
40
0
40
0
40
0
40
1
40
1
40
1
40
1
10
102.72134
20
1.264576
30
0
10
103.849066
20
1.433195
30
0
10
104.842793
20
1.615065
30
0
10
104.929624
20
1.668729
30
0
0
SPLINE
5
72
100
AcDbEntity
8
Layer_1
6
ByLayer
62
7
370
-1
100
AcDbSpline
210
0
220
0
230
1
70
8
71
3
72
8
73
4
74
0
42
1e-07
43
1e-07
40
0
40
0
40
0
40
0
40
1
40
1
40
1
40
1
10
104.929624
20
1.668729
30
0
10
105.132012
20
1.793813
30
0
10
105.156678
20
137.079996
30
0
10
104.954319
20
137.088987
30
0
0
SPLINE
5
73
100
AcDbEntity
8
Layer_1
6
ByLayer
62
7
370
-1
100
AcDbSpline
210
0
220
0
230
1
70
8
71
3
72
8
73
4
74
0
42
1e-07
43
1e-07
40
0
40
0
40
0
40
0
40
1
40
1
40
1
40
1
10
104.954319
20
137.088987
30
0
10
104.870917
20
137.092684
30
0
10
103.777283
20
137.21711
30
0
10
102.52403
20
137.365466
30
0
0
SPLINE
5
74
100
AcDbEntity
8
Layer_1
6
ByLayer
62
7
370
-1
100
AcDbSpline
210
0
220
0
230
1
70
8
71
3
72
8
73
4
74
0
42
1e-07
43
1e-07
40
0
40
0
40
0
40
0
40
1
40
1
40
1
40
1
10
102.52403
20
137.365466
30
0
10
101.270774
20
137.513828
30
0
10
100.178512
20
137.594696
30
0
10
100.096778
20
137.54518
30
0
0
SPLINE
5
75
100
AcDbEntity
8
Layer_1
6
ByLayer
62
7
370
-1
100
AcDbSpline
210
0
220
0
230
1
70
8
71
3
72
8
73
4
74
0
42
1e-07
43
1e-07
40
0
40
0
40
0
40
0
40
1
40
1
40
1
40
1
10
100.096778
20
137.54518
30
0
10
100.015043
20
137.495661
30
0
10
99.933179
20
136.947712
30
0
10
99.91486
20
136.327518
30
0
0
LWPOLYLINE
5
76
100
AcDbEntity
8
Layer_1
6
ByLayer
62
7
370
-1
100
AcDbPolyline
90
2
70
1
43
0
10
99.650932
20
0.309761
10
99.650946
20
0.30977
0
SPLINE
5
77
100
AcDbEntity
8
Layer_1
6
ByLayer
62
7
370
-1
100
AcDbSpline
210
0
220
0
230
1
70
8
71
3
72
8
73
4
74
0
42
1e-07
43
1e-07
40
0
40
0
40
0
40
0
40
1
40
1
40
1
40
1
10
99.484178
20
135.794318
30
0
10
99.393011
20
134.813508
30
0
10
99.322332
20
124.069204
30
0
10
99.327107
20
111.918084
30
0
0
SPLINE
5
78
100
AcDbEntity
8
Layer_1
6
ByLayer
62
7
370
-1
100
AcDbSpline
210
0
220
0
230
1
70
8
71
3
72
8
73
4
74
0
42
1e-07
43
1e-07
40
0
40
0
40
0
40
0
40
1
40
1
40
1
40
1
10
99.327107
20
111.918084
30
0
10
99.332187
20
98.955846
30
0
10
99.263364
20
89.988918
30
0
10
99.160548
20
90.221424
30
0
0
SPLINE
5
79
100
AcDbEntity
8
Layer_1
6
ByLayer
62
7
370
-1
100
AcDbSpline
210
0
220
0
230
1
70
8
71
3
72
8
73
4
74
0
42
1e-07
43
1e-07
40
0
40
0
40
0
40
0
40
1
40
1
40
1
40
1
10
99.160548
20
90.221424
30
0
10
99.062628
20
90.442855
30
0
10
98.977823
20
100.671822
30
0
10
98.968346
20
113.404156
30
0
0
SPLINE
5
7A
100
AcDbEntity
8
Layer_1
6
ByLayer
62
7
370
-1
100
AcDbSpline
210
0
220
0
230
1
70
8
71
3
72
8
73
4
74
0
42
1e-07
43
1e-07
40
0
40
0
40
0
40
0
40
1
40
1
40
1
40
1
10
98.968346
20
113.404156
30
0
10
98.958073
20
127.220128
30
0
10
98.87821
20
136.306334
30
0
10
98.76551
20
136.484574
30
0
0
SPLINE
5
7B
100
AcDbEntity
8
Layer_1
6
ByLayer
62
7
370
-1
100
AcDbSpline
210
0
220
0
230
1
70
8
71
3
72
8
73
4
74
0
42
1e-07
43
1e-07
40
0
40
0
40
0
40
0
40
1
40
1
40
1
40
1
10
98.76551
20
136.484574
30
0
10
98.619409
20
136.715638
30
0
10
98.507678
20
136.609636
30
0
10
98.243388
20
135.989218
30
0
0
SPLINE
5
7C
100
AcDbEntity
8
Layer_1
6
ByLayer
62
7
370
-1
100
AcDbSpline
210
0
220
0
230
1
70
8
71
3
72
8
73
4
74
0
42
1e-07
43
1e-07
40
0
40
0
40
0
40
0
40
1
40
1
40
1
40
1
10
98.243388
20
135.989218
30
0
10
97.130794
20
133.377418
30
0
10
96.810627
20
129.718322
30
0
10
96.743986
20
118.853088
30
0
0
SPLINE
5
7D
100
AcDbEntity
8
Layer_1
6
ByLayer
62
7
370
-1
100
AcDbSpline
210
0
220
0
230
1
70
8
71
3
72
8
73
4
74
0
42
1e-07
43
1e-07
40
0
40
0
40
0
40
0
40
1
40
1
40
1
40
1
10
96.743986
20
118.853088
30
0
10
96.670902
20
106.937714
30
0
10
96.963208
20
9.700537
30
0
10
97.076354
20
8.289284
30
0
0
SPLINE
5
7E
100
AcDbEntity
8
Layer_1
6
ByLayer
62
7
370
-1
100
AcDbSpline
210
0
220
0
230
1
70
8
71
3
72
8
73
4
74
0
42
1e-07
43
1e-07
40
0
40
0
40
0
40
0
40
1
40
1
40
1
40
1
10
97.076354
20
8.289284
30
0
10
97.256617
20
6.040857
30
0
10
97.733548
20
3.993083
30
0
10
98.412532
20
2.552209
30
0
0
LWPOLYLINE
5
7F
100
AcDbEntity
8
Layer_1
6
ByLayer
62
7
370
-1
100
AcDbPolyline
90
5
70
1
43
0
10
99.91486
20
136.327518
10
99.881549
20
135.199888
10
99.765742
20
136.388746
10
99.649932
20
137.577604
10
99.484178
20
135.794318
0
SPLINE
5
80
100
AcDbEntity
8
Layer_1
6
ByLayer
62
7
370
-1
100
AcDbSpline
210
0
220
0
230
1
70
8
71
3
72
8
73
4
74
0
42
1e-07
43
1e-07
40
0
40
0
40
0
40
0
40
1
40
1
40
1
40
1
10
99.327652
20
1.932198
30
0
10
99.341989
20
1.54169
30
0
10
99.413179
20
1.162741
30
0
10
99.485832
20
1.090089
30
0
0
SPLINE
5
81
100
AcDbEntity
8
Layer_1
6
ByLayer
62
7
370
-1
100
AcDbSpline
210
0
220
0
230
1
70
8
71
3
72
8
73
4
74
0
42
1e-07
43
1e-07
40
0
40
0
40
0
40
0
40
1
40
1
40
1
40
1
10
99.485832
20
1.090089
30
0
10
99.688749
20
0.887168
30
0
10
100.484148
20
0.930066
30
0
10
102.721343
20
1.264576
30
0
0
LWPOLYLINE
5
82
100
AcDbEntity
8
Layer_1
6
ByLayer
62
7
370
-1
100
AcDbPolyline
90
5
70
1
43
0
10
98.412532
20
2.552209
10
99.023718
20
1.255209
10
99.162645
20
1.948708
10
99.301574
20
2.64221
10
99.327652
20
1.932198
0
SPLINE
5
83
100
AcDbEntity
8
Layer_1
6
ByLayer
62
7
370
-1
100
AcDbSpline
210
0
220
0
230
1
70
8
71
3
72
8
73
4
74
0
42
1e-07
43
1e-07
40
0
40
0
40
0
40
0
40
1
40
1
40
1
40
1
10
26.536174
20
0.564659
30
0
10
20.609281
20
0.703205
30
0
10
12.754131
20
1.101192
30
0
10
12.58375
20
1.271572
30
0
0
SPLINE
5
84
100
AcDbEntity
8
Layer_1
6
ByLayer
62
7
370
-1
100
AcDbSpline
210
0
220
0
230
1
70
8
71
3
72
8
73
4
74
0
42
1e-07
43
1e-07
40
0
40
0
40
0
40
0
40
1
40
1
40
1
40
1
10
12.58375
20
1.271572
30
0
10
12.538262
20
1.317061
30
0
10
12.984018
20
1.364872
30
0
10
13.574317
20
1.37782
30
0
0
LWPOLYLINE
5
85
100
AcDbEntity
8
Layer_1
6
ByLayer
62
7
370
-1
100
AcDbPolyline
90
2
70
1
43
0
10
102.721343
20
1.264576
10
102.72134
20
1.264576
0
SPLINE
5
86
100
AcDbEntity
8
Layer_1
6
ByLayer
62
7
370
-1
100
AcDbSpline
210
0
220
0
230
1
70
8
71
3
72
8
73
4
74
0
42
1e-07
43
1e-07
40
0
40
0
40
0
40
0
40
1
40
1
40
1
40
1
10
13.656875
20
1.562588
30
0
10
13.111983
20
1.651265
30
0
10
11.240748
20
1.917576
30
0
10
9.498579
20
2.154391
30
0
0
SPLINE
5
87
100
AcDbEntity
8
Layer_1
6
ByLayer
62
7
370
-1
100
AcDbSpline
210
0
220
0
230
1
70
8
71
3
72
8
73
4
74
0
42
1e-07
43
1e-07
40
0
40
0
40
0
40
0
40
1
40
1
40
1
40
1
10
9.498579
20
2.154391
30
0
10
5.468364
20
2.702216
30
0
10
4.173889
20
3.098662
30
0
10
2.977913
20
4.151404
30
0
0
SPLINE
5
88
100
AcDbEntity
8
Layer_1
6
ByLayer
62
7
370
-1
100
AcDbSpline
210
0
220
0
230
1
70
8
71
3
72
8
73
4
74
0
42
1e-07
43
1e-07
40
0
40
0
40
0
40
0
40
1
40
1
40
1
40
1
10
2.977913
20
4.151404
30
0
10
1.218461
20
5.700135
30
0
10
1.208019
20
5.746727
30
0
10
1.051752
20
12.747504
30
0
0
SPLINE
5
89
100
AcDbEntity
8
Layer_1
6
ByLayer
62
7
370
-1
100
AcDbSpline
210
0
220
0
230
1
70
8
71
3
72
8
73
4
74
0
42
1e-07
43
1e-07
40
0
40
0
40
0
40
0
40
1
40
1
40
1
40
1
10
1.051752
20
12.747504
30
0
10
0.976343
20
16.125842
30
0
10
0.906098
20
34.773946
30
0
10
0.89565
20
54.187731
30
0
0
SPLINE
5
8A
100
AcDbEntity
8
Layer_1
6
ByLayer
62
7
370
-1
100
AcDbSpline
210
0
220
0
230
1
70
8
71
3
72
8
73
4
74
0
42
1e-07
43
1e-07
40
0
40
0
40
0
40
0
40
1
40
1
40
1
40
1
10
0.89565
20
54.187731
30
0
10
0.878857
20
85.369039
30
0
10
0.841991
20
89.498825
30
0
10
0.579437
20
89.599578
30
0
0
SPLINE
5
8B
100
AcDbEntity
8
Layer_1
6
ByLayer
62
7
370
-1
100
AcDbSpline
210
0
220
0
230
1
70
8
71
3
72
8
73
4
74
0
42
1e-07
43
1e-07
40
0
40
0
40
0
40
0
40
1
40
1
40
1
40
1
10
0.579437
20
89.599578
30
0
10
0.320225
20
89.699044
30
0
10
0.282222
20
91.108671
30
0
10
0.282222
20
100.623932
30
0
0
SPLINE
5
8C
100
AcDbEntity
8
Layer_1
6
ByLayer
62
7
370
-1
100
AcDbSpline
210
0
220
0
230
1
70
8
71
3
72
8
73
4
74
0
42
1e-07
43
1e-07
40
0
40
0
40
0
40
0
40
1
40
1
40
1
40
1
10
0.282222
20
100.623932
30
0
10
0.282222
20
110.139195
30
0
10
0.320225
20
111.548819
30
0
10
0.579437
20
111.648285
30
0
0
SPLINE
5
8D
100
AcDbEntity
8
Layer_1
6
ByLayer
62
7
370
-1
100
AcDbSpline
210
0
220
0
230
1
70
8
71
3
72
8
73
4
74
0
42
1e-07
43
1e-07
40
0
40
0
40
0
40
0
40
1
40
1
40
1
40
1
10
0.579437
20
111.648285
30
0
10
0.837455
20
111.7473
30
0
10
0.876851
20
112.928916
30
0
10
0.878155
20
120.608039
30
0
0
SPLINE
5
8E
100
AcDbEntity
8
Layer_1
6
ByLayer
62
7
370
-1
100
AcDbSpline
210
0
220
0
230
1
70
8
71
3
72
8
73
4
74
0
42
1e-07
43
1e-07
40
0
40
0
40
0
40
0
40
1
40
1
40
1
40
1
10
0.878155
20
120.608039
30
0
10
0.879001
20
125.473175
30
0
10
0.963637
20
130.184065
30
0
10
1.066281
20
131.076683
30
0
0
SPLINE
5
8F
100
AcDbEntity
8
Layer_1
6
ByLayer
62
7
370
-1
100
AcDbSpline
210
0
220
0
230
1
70
8
71
3
72
8
73
4
74
0
42
1e-07
43
1e-07
40
0
40
0
40
0
40
0
40
1
40
1
40
1
40
1
10
1.066281
20
131.076683
30
0
10
1.484978
20
134.717804
30
0
10
2.87289
20
135.788852
30
0
10
8.207943
20
136.587893
30
0
0
SPLINE
5
90
100
AcDbEntity
8
Layer_1
6
ByLayer
62
7
370
-1
100
AcDbSpline
210
0
220
0
230
1
70
8
71
3
72
8
73
4
74
0
42
1e-07
43
1e-07
40
0
40
0
40
0
40
0
40
1
40
1
40
1
40
1
10
8.207943
20
136.587893
30
0
10
15.300605
20
137.650172
30
0
10
24.101135
20
138.126721
30
0
10
36.542396
20
138.1222
30
0
0
SPLINE
5
91
100
AcDbEntity
8
Layer_1
6
ByLayer
62
7
370
-1
100
AcDbSpline
210
0
220
0
230
1
70
8
71
3
72
8
73
4
74
0
42
1e-07
43
1e-07
40
0
40
0
40
0
40
0
40
1
40
1
40
1
40
1
10
36.542396
20
138.1222
30
0
10
49.785158
20
138.117374
30
0
10
58.371216
20
137.602555
30
0
10
63.90596
20
136.481442
30
0
0
SPLINE
5
92
100
AcDbEntity
8
Layer_1
6
ByLayer
62
7
370
-1
100
AcDbSpline
210
0
220
0
230
1
70
8
71
3
72
8
73
4
74
0
42
1e-07
43
1e-07
40
0
40
0
40
0
40
0
40
1
40
1
40
1
40
1
10
63.90596
20
136.481442
30
0
10
66.274166
20
136.00174
30
0
10
67.049224
20
135.681585
30
0
10
68.065896
20
134.763081
30
0
0
SPLINE
5
93
100
AcDbEntity
8
Layer_1
6
ByLayer
62
7
370
-1
100
AcDbSpline
210
0
220
0
230
1
70
8
71
3
72
8
73
4
74
0
42
1e-07
43
1e-07
40
0
40
0
40
0
40
0
40
1
40
1
40
1
40
1
10
68.065896
20
134.763081
30
0
10
69.640304
20
133.340698
30
0
10
69.682355
20
133.152543
30
0
10
69.871475
20
126.684253
30
0
0
SPLINE
5
94
100
AcDbEntity
8
Layer_1
6
ByLayer
62
7
370
-1
100
AcDbSpline
210
0
220
0
230
1
70
8
71
3
72
8
73
4
74
0
42
1e-07
43
1e-07
40
0
40
0
40
0
40
0
40
1
40
1
40
1
40
1
10
69.871475
20
126.684253
30
0
10
69.965373
20
123.472761
30
0
10
70.124287
20
120.857682
30
0
10
70.232101
20
120.74987
30
0
0
SPLINE
5
95
100
AcDbEntity
8
Layer_1
6
ByLayer
62
7
370
-1
100
AcDbSpline
210
0
220
0
230
1
70
8
71
3
72
8
73
4
74
0
42
1e-07
43
1e-07
40
0
40
0
40
0
40
0
40
1
40
1
40
1
40
1
10
70.232101
20
120.74987
30
0
10
70.539879
20
120.442093
30
0
10
70.486745
20
111.323659
30
0
10
70.177172
20
111.323636
30
0
0
SPLINE
5
96
100
AcDbEntity
8
Layer_1
6
ByLayer
62
7
370
-1
100
AcDbSpline
210
0
220
0
230
1
70
8
71
3
72
8
73
4
74
0
42
1e-07
43
1e-07
40
0
40
0
40
0
40
0
40
1
40
1
40
1
40
1
10
70.177172
20
111.323636
30
0
10
69.97967
20
111.323622
30
0
10
69.929051
20
100.877009
30
0
10
69.927315
20
59.756918
30
0
0
SPLINE
5
97
100
AcDbEntity
8
Layer_1
6
ByLayer
62
7
370
-1
100
AcDbSpline
210
0
220
0
230
1
70
8
71
3
72
8
73
4
74
0
42
1e-07
43
1e-07
40
0
40
0
40
0
40
0
40
1
40
1
40
1
40
1
10
69.927315
20
59.756918
30
0
10
69.925622
20
17.877567
30
0
10
69.876213
20
7.9754
30
0
10
69.664727
20
7.04675
30
0
0
SPLINE
5
98
100
AcDbEntity
8
Layer_1
6
ByLayer
62
7
370
-1
100
AcDbSpline
210
0
220
0
230
1
70
8
71
3
72
8
73
4
74
0
42
1e-07
43
1e-07
40
0
40
0
40
0
40
0
40
1
40
1
40
1
40
1
10
69.664727
20
7.04675
30
0
10
69.350857
20
5.668518
30
0
10
68.46959
20
4.444238
30
0
10
67.247511
20
3.688687
30
0
0
SPLINE
5
99
100
AcDbEntity
8
Layer_1
6
ByLayer
62
7
370
-1
100
AcDbSpline
210
0
220
0
230
1
70
8
71
3
72
8
73
4
74
0
42
1e-07
43
1e-07
40
0
40
0
40
0
40
0
40
1
40
1
40
1
40
1
10
67.247511
20
3.688687
30
0
10
65.341486
20
2.510279
30
0
10
59.902486
20
1.750921
30
0
10
53.637308
20
1.788513
30
0
0
SPLINE
5
9A
100
AcDbEntity
8
Layer_1
6
ByLayer
62
7
370
-1
100
AcDbSpline
210
0
220
0
230
1
70
8
71
3
72
8
73
4
74
0
42
1e-07
43
1e-07
40
0
40
0
40
0
40
0
40
1
40
1
40
1
40
1
10
53.637308
20
1.788513
30
0
10
49.425378
20
1.813772
30
0
10
49.381608
20
1.818177
30
0
10
51.799409
20
1.972891
30
0
0
SPLINE
5
9B
100
AcDbEntity
8
Layer_1
6
ByLayer
62
7
370
-1
100
AcDbSpline
210
0
220
0
230
1
70
8
71
3
72
8
73
4
74
0
42
1e-07
43
1e-07
40
0
40
0
40
0
40
0
40
1
40
1
40
1
40
1
10
51.799409
20
1.972891
30
0
10
58.245305
20
2.38537
30
0
10
64.598785
20
3.279541
30
0
10
66.060538
20
3.979963
30
0
0
SPLINE
5
9C
100
AcDbEntity
8
Layer_1
6
ByLayer
62
7
370
-1
100
AcDbSpline
210
0
220
0
230
1
70
8
71
3
72
8
73
4
74
0
42
1e-07
43
1e-07
40
0
40
0
40
0
40
0
40
1
40
1
40
1
40
1
10
66.060538
20
3.979963
30
0
10
67.45948
20
4.650288
30
0
10
68.538853
20
5.85917
30
0
10
68.861596
20
7.117103
30
0
0
SPLINE
5
9D
100
AcDbEntity
8
Layer_1
6
ByLayer
62
7
370
-1
100
AcDbSpline
210
0
220
0
230
1
70
8
71
3
72
8
73
4
74
0
42
1e-07
43
1e-07
40
0
40
0
40
0
40
0
40
1
40
1
40
1
40
1
10
68.861596
20
7.117103
30
0
10
69.09286
20
8.018481
30
0
10
69.131485
20
14.849187
30
0
10
69.102947
20
49.800248
30
0
0
SPLINE
5
9E
100
AcDbEntity
8
Layer_1
6
ByLayer
62
7
370
-1
100
AcDbSpline
210
0
220
0
230
1
70
8
71
3
72
8
73
4
74
0
42
1e-07
43
1e-07
40
0
40
0
40
0
40
0
40
1
40
1
40
1
40
1
10
69.102947
20
49.800248
30
0
10
69.065533
20
95.617575
30
0
10
68.897388
20
130.658847
30
0
10
68.709789
20
131.732387
30
0
0
SPLINE
5
9F
100
AcDbEntity
8
Layer_1
6
ByLayer
62
7
370
-1
100
AcDbSpline
210
0
220
0
230
1
70
8
71
3
72
8
73
4
74
0
42
1e-07
43
1e-07
40
0
40
0
40
0
40
0
40
1
40
1
40
1
40
1
10
68.709789
20
131.732387
30
0
10
68.531199
20
132.754378
30
0
10
68.145872
20
133.40505
30
0
10
67.308231
20
134.099074
30
0
0
SPLINE
5
A0
100
AcDbEntity
8
Layer_1
6
ByLayer
62
7
370
-1
100
AcDbSpline
210
0
220
0
230
1
70
8
71
3
72
8
73
4
74
0
42
1e-07
43
1e-07
40
0
40
0
40
0
40
0
40
1
40
1
40
1
40
1
10
67.308231
20
134.099074
30
0
10
66.372724
20
134.874192
30
0
10
65.304642
20
135.182192
30
0
10
61.805629
20
135.685846
30
0
0
SPLINE
5
A1
100
AcDbEntity
8
Layer_1
6
ByLayer
62
7
370
-1
100
AcDbSpline
210
0
220
0
230
1
70
8
71
3
72
8
73
4
74
0
42
1e-07
43
1e-07
40
0
40
0
40
0
40
0
40
1
40
1
40
1
40
1
10
61.805629
20
135.685846
30
0
10
48.836152
20
137.552692
30
0
10
22.962247
20
137.550866
30
0
10
9.396801
20
135.682149
30
0
0
SPLINE
5
A2
100
AcDbEntity
8
Layer_1
6
ByLayer
62
7
370
-1
100
AcDbSpline
210
0
220
0
230
1
70
8
71
3
72
8
73
4
74
0
42
1e-07
43
1e-07
40
0
40
0
40
0
40
0
40
1
40
1
40
1
40
1
10
9.396801
20
135.682149
30
0
10
4.880283
20
135.059973
30
0
10
3.723096
20
134.611336
30
0
10
2.717405
20
133.092574
30
0
0
LWPOLYLINE
5
A3
100
AcDbEntity
8
Layer_1
6
ByLayer
62
7
370
-1
100
AcDbPolyline
90
3
70
1
43
0
10
13.574317
20
1.37782
10
14.647591
20
1.401358
10
13.656875
20
1.562588
0
SPLINE
5
A4
100
AcDbEntity
8
Layer_1
6
ByLayer
62
7
370
-1
100
AcDbSpline
210
0
220
0
230
1
70
8
71
3
72
8
73
4
74
0
42
1e-07
43
1e-07
40
0
40
0
40
0
40
0
40
1
40
1
40
1
40
1
10
2.057844
20
123.920724
30
0
10
1.999139
20
119.335378
30
0
10
1.958755
20
91.286443
30
0
10
1.968103
20
61.589759
30
0
0
SPLINE
5
A5
100
AcDbEntity
8
Layer_1
6
ByLayer
62
7
370
-1
100
AcDbSpline
210
0
220
0
230
1
70
8
71
3
72
8
73
4
74
0
42
1e-07
43
1e-07
40
0
40
0
40
0
40
0
40
1
40
1
40
1
40
1
10
1.968103
20
61.589759
30
0
10
1.981565
20
18.789182
30
0
10
2.03675
20
7.440625
30
0
10
2.234255
20
6.847335
30
0
0
SPLINE
5
A6
100
AcDbEntity
8
Layer_1
6
ByLayer
62
7
370
-1
100
AcDbSpline
210
0
220
0
230
1
70
8
71
3
72
8
73
4
74
0
42
1e-07
43
1e-07
40
0
40
0
40
0
40
0
40
1
40
1
40
1
40
1
10
2.234255
20
6.847335
30
0
10
2.77711
20
5.216638
30
0
10
4.221898
20
4.142212
30
0
10
6.721871
20
3.510091
30
0
0
SPLINE
5
A7
100
AcDbEntity
8
Layer_1
6
ByLayer
62
7
370
-1
100
AcDbSpline
210
0
220
0
230
1
70
8
71
3
72
8
73
4
74
0
42
1e-07
43
1e-07
40
0
40
0
40
0
40
0
40
1
40
1
40
1
40
1
10
6.721871
20
3.510091
30
0
10
7.970227
20
3.194445
30
0
10
8.00984
20
3.170448
30
0
10
7.118156
20
3.270019
30
0
0
SPLINE
5
A8
100
AcDbEntity
8
Layer_1
6
ByLayer
62
7
370
-1
100
AcDbSpline
210
0
220
0
230
1
70
8
71
3
72
8
73
4
74
0
42
1e-07
43
1e-07
40
0
40
0
40
0
40
0
40
1
40
1
40
1
40
1
10
7.118156
20
3.270019
30
0
10
6.573264
20
3.330866
30
0
10
5.663487
20
3.533625
30
0
10
5.096432
20
3.720592
30
0
0
SPLINE
5
A9
100
AcDbEntity
8
Layer_1
6
ByLayer
62
7
370
-1
100
AcDbSpline
210
0
220
0
230
1
70
8
71
3
72
8
73
4
74
0
42
1e-07
43
1e-07
40
0
40
0
40
0
40
0
40
1
40
1
40
1
40
1
10
5.096432
20
3.720592
30
0
10
4.529374
20
3.907564
30
0
10
4.110384
20
3.987786
30
0
10
4.165335
20
3.898872
30
0
0
SPLINE
5
AA
100
AcDbEntity
8
Layer_1
6
ByLayer
62
7
370
-1
100
AcDbSpline
210
0
220
0
230
1
70
8
71
3
72
8
73
4
74
0
42
1e-07
43
1e-07
40
0
40
0
40
0
40
0
40
1
40
1
40
1
40
1
10
4.165335
20
3.898872
30
0
10
4.610115
20
3.179205
30
0
10
14.038928
20
1.801664
30
0
10
21.78074
20
1.325273
30
0
0
SPLINE
5
AB
100
AcDbEntity
8
Layer_1
6
ByLayer
62
7
370
-1
100
AcDbSpline
210
0
220
0
230
1
70
8
71
3
72
8
73
4
74
0
42
1e-07
43
1e-07
40
0
40
0
40
0
40
0
40
1
40
1
40
1
40
1
10
21.78074
20
1.325273
30
0
10
26.084271
20
1.060458
30
0
10
42.24361
20
0.98158
30
0
10
51.059086
20
1.182359
30
0
0
SPLINE
5
AC
100
AcDbEntity
8
Layer_1
6
ByLayer
62
7
370
-1
100
AcDbSpline
210
0
220
0
230
1
70
8
71
3
72
8
73
4
74
0
42
1e-07
43
1e-07
40
0
40
0
40
0
40
0
40
1
40
1
40
1
40
1
10
51.059086
20
1.182359
30
0
10
54.177752
20
1.253388
30
0
10
56.607067
20
1.231934
30
0
10
56.668321
20
1.132823
30
0
0
SPLINE
5
AD
100
AcDbEntity
8
Layer_1
6
ByLayer
62
7
370
-1
100
AcDbSpline
210
0
220
0
230
1
70
8
71
3
72
8
73
4
74
0
42
1e-07
43
1e-07
40
0
40
0
40
0
40
0
40
1
40
1
40
1
40
1
10
56.668321
20
1.132823
30
0
10
56.727748
20
1.036667
30
0
10
56.392161
20
0.957941
30
0
10
55.922568
20
0.957879
30
0
0
SPLINE
5
AE
100
AcDbEntity
8
Layer_1
6
ByLayer
62
7
370
-1
100
AcDbSpline
210
0
220
0
230
1
70
8
71
3
72
8
73
4
74
0
42
1e-07
43
1e-07
40
0
40
0
40
0
40
0
40
1
40
1
40
1
40
1
10
55.922568
20
0.957879
30
0
10
55.452979
20
0.957817
30
0
10
53.463809
20
0.874528
30
0
10
51.502192
20
0.772795
30
0
0
SPLINE
5
AF
100
AcDbEntity
8
Layer_1
6
ByLayer
62
7
370
-1
100
AcDbSpline
210
0
220
0
230
1
70
8
71
3
72
8
73
4
74
0
42
1e-07
43
1e-07
40
0
40
0
40
0
40
0
40
1
40
1
40
1
40
1
10
51.502192
20
0.772795
30
0
10
46.327331
20
0.50441
30
0
10
33.638818
20
0.398633
30
0
10
26.536174
20
0.564662
30
0
0
LWPOLYLINE
5
B0
100
AcDbEntity
8
Layer_1
6
ByLayer
62
7
370
-1
100
AcDbPolyline
90
3
70
1
43
0
10
2.717405
20
133.092574
10
2.16458
20
132.257721
10
2.057844
20
123.920724
0
SPLINE
5
B1
100
AcDbEntity
8
Layer_1
6
ByLayer
62
7
370
-1
100
AcDbSpline
210
0
220
0
230
1
70
8
71
3
72
8
73
4
74
0
42
1e-07
43
1e-07
40
0
40
0
40
0
40
0
40
1
40
1
40
1
40
1
10
3.218937
20
4.871319
30
0
10
2.256139
20
5.878511
30
0
10
2.054426
20
6.327803
30
0
10
1.874961
20
7.86491
30
0
0
LWPOLYLINE
5
B2
100
AcDbEntity
8
Layer_1
6
ByLayer
62
7
370
-1
100
AcDbPolyline
90
2
70
1
43
0
10
26.536174
20
0.564662
10
26.536174
20
0.564659
0
SPLINE
5
B3
100
AcDbEntity
8
Layer_1
6
ByLayer
62
7
370
-1
100
AcDbSpline
210
0
220
0
230
1
70
8
71
3
72
8
73
4
74
0
42
1e-07
43
1e-07
40
0
40
0
40
0
40
0
40
1
40
1
40
1
40
1
10
1.699602
20
8.091142
30
0
10
1.673412
20
6.775038
30
0
10
2.177548
20
5.554407
30
0
10
3.092439
20
4.718784
30
0
0
SPLINE
5
B4
100
AcDbEntity
8
Layer_1
6
ByLayer
62
7
370
-1
100
AcDbSpline
210
0
220
0
230
1
70
8
71
3
72
8
73
4
74
0
42
1e-07
43
1e-07
40
0
40
0
40
0
40
0
40
1
40
1
40
1
40
1
10
3.092439
20
4.718784
30
0
10
3.9959
20
3.8936
30
0
10
4.069129
20
3.98191
30
0
10
3.218923
20
4.871319
30
0
0
LWPOLYLINE
5
B5
100
AcDbEntity
8
Layer_1
6
ByLayer
62
7
370
-1
100
AcDbPolyline
90
3
70
1
43
0
10
1.874961
20
7.86491
10
1.721305
20
9.180929
10
1.699602
20
8.091142
0
SPLINE
5
B6
100
AcDbEntity
8
Layer_1
6
ByLayer
62
7
370
-1
100
AcDbSpline
210
0
220
0
230
1
70
8
71
3
72
8
73
4
74
0
42
1e-07
43
1e-07
40
0
40
0
40
0
40
0
40
1
40
1
40
1
40
1
10
1.718124
20
70.618734
30
0
10
1.690523
20
104.26687
30
0
10
1.622341
20
131.75155
30
0
10
1.566588
20
131.6958
30
0
0
SPLINE
5
B7
100
AcDbEntity
8
Layer_1
6
ByLayer
62
7
370
-1
100
AcDbSpline
210
0
220
0
230
1
70
8
71
3
72
8
73
4
74
0
42
1e-07
43
1e-07
40
0
40
0
40
0
40
0
40
1
40
1
40
1
40
1
10
1.566588
20
131.6958
30
0
10
1.343886
20
131.473098
30
0
10
1.39695
20
9.210799
30
0
10
1.619688
20
9.348456
30
0
0
SPLINE
5
B8
100
AcDbEntity
8
Layer_1
6
ByLayer
62
7
370
-1
100
AcDbSpline
210
0
220
0
230
1
70
8
71
3
72
8
73
4
74
0
42
1e-07
43
1e-07
40
0
40
0
40
0
40
0
40
1
40
1
40
1
40
1
10
1.619688
20
9.348456
30
0
10
1.701422
20
9.398968
30
0
10
1.74572
20
36.970592
30
0
10
1.718124
20
70.618734
30
0
0
LWPOLYLINE
5
B9
100
AcDbEntity
8
Layer_1
6
ByLayer
62
7
370
-1
100
AcDbPolyline
90
2
70
1
43
0
10
3.218923
20
4.871319
10
3.218937
20
4.871319
0
SPLINE
5
BA
100
AcDbEntity
8
Layer_1
6
ByLayer
62
7
370
-1
100
AcDbSpline
210
0
220
0
230
1
70
8
71
3
72
8
73
4
74
0
42
1e-07
43
1e-07
40
0
40
0
40
0
40
0
40
1
40
1
40
1
40
1
10
1.240274
20
98.890181
30
0
10
1.219615
20
104.433412
30
0
10
1.155311
20
106.929287
30
0
10
1.065404
20
105.676579
30
0
0
SPLINE
5
BB
100
AcDbEntity
8
Layer_1
6
ByLayer
62
7
370
-1
100
AcDbSpline
210
0
220
0
230
1
70
8
71
3
72
8
73
4
74
0
42
1e-07
43
1e-07
40
0
40
0
40
0
40
0
40
1
40
1
40
1
40
1
10
1.065404
20
105.676579
30
0
10
0.838297
20
102.512201
30
0
10
0.845778
20
90.122352
30
0
10
1.074802
20
90.122352
30
0
0
SPLINE
5
BC
100
AcDbEntity
8
Layer_1
6
ByLayer
62
7
370
-1
100
AcDbSpline
210
0
220
0
230
1
70
8
71
3
72
8
73
4
74
0
42
1e-07
43
1e-07
40
0
40
0
40
0
40
0
40
1
40
1
40
1
40
1
10
1.074802
20
90.122352
30
0
10
1.204404
20
90.122352
30
0
10
1.261647
20
93.155282
30
0
10
1.24028
20
98.890181
30
0
0
LWPOLYLINE
5
BD
100
AcDbEntity
8
Layer_1
6
ByLayer
62
7
370
-1
100
AcDbPolyline
90
2
70
1
43
0
10
1.718124
20
70.618734
10
1.718124
20
70.618734
0
SPLINE
5
BE
100
AcDbEntity
8
Layer_1
6
ByLayer
62
7
370
-1
100
AcDbSpline
210
0
220
0
230
1
70
8
71
3
72
8
73
4
74
0
42
1e-07
43
1e-07
40
0
40
0
40
0
40
0
40
1
40
1
40
1
40
1
10
0.818343
20
109.39176
30
0
10
0.771116
20
109.636964
30
0
10
0.732474
20
109.436343
30
0
10
0.732474
20
108.94594
30
0
0
SPLINE
5
BF
100
AcDbEntity
8
Layer_1
6
ByLayer
62
7
370
-1
100
AcDbSpline
210
0
220
0
230
1
70
8
71
3
72
8
73
4
74
0
42
1e-07
43
1e-07
40
0
40
0
40
0
40
0
40
1
40
1
40
1
40
1
10
0.732474
20
108.94594
30
0
10
0.732474
20
108.455533
30
0
10
0.771116
20
108.254916
30
0
10
0.818343
20
108.500116
30
0
0
SPLINE
5
C0
100
AcDbEntity
8
Layer_1
6
ByLayer
62
7
370
-1
100
AcDbSpline
210
0
220
0
230
1
70
8
71
3
72
8
73
4
74
0
42
1e-07
43
1e-07
40
0
40
0
40
0
40
0
40
1
40
1
40
1
40
1
10
0.818343
20
108.500116
30
0
10
0.86557
20
108.745319
30
0
10
0.86557
20
109.146557
30
0
10
0.818343
20
109.39176
30
0
0
LWPOLYLINE
5
C1
100
AcDbEntity
8
Layer_1
6
ByLayer
62
7
370
-1
100
AcDbPolyline
90
2
70
1
43
0
10
1.24028
20
98.890181
10
1.240274
20
98.890181
0
SPLINE
5
C2
100
AcDbEntity
8
Layer_1
6
ByLayer
62
7
370
-1
100
AcDbSpline
210
0
220
0
230
1
70
8
71
3
72
8
73
4
74
0
42
1e-07
43
1e-07
40
0
40
0
40
0
40
0
40
1
40
1
40
1
40
1
10
0.809736
20
110.580619
30
0
10
0.75477
20
110.716842
30
0
10
0.709795
20
110.605398
30
0
10
0.709795
20
110.332941
30
0
0
SPLINE
5
C3
100
AcDbEntity
8
Layer_1
6
ByLayer
62
7
370
-1
100
AcDbSpline
210
0
220
0
230
1
70
8
71
3
72
8
73
4
74
0
42
1e-07
43
1e-07
40
0
40
0
40
0
40
0
40
1
40
1
40
1
40
1
10
0.709795
20
110.332941
30
0
10
0.709795
20
110.060494
30
0
10
0.75477
20
109.949036
30
0
10
0.809736
20
110.085262
30
0
0
SPLINE
5
C4
100
AcDbEntity
8
Layer_1
6
ByLayer
62
7
370
-1
100
AcDbSpline
210
0
220
0
230
1
70
8
71
3
72
8
73
4
74
0
42
1e-07
43
1e-07
40
0
40
0
40
0
40
0
40
1
40
1
40
1
40
1
10
0.809736
20
110.085262
30
0
10
0.864704
20
110.221485
30
0
10
0.864704
20
110.444396
30
0
10
0.809736
20
110.580619
30
0
0
LWPOLYLINE
5
C5
100
AcDbEntity
8
Layer_1
6
ByLayer
62
7
370
-1
100
AcDbPolyline
90
2
70
1
43
0
10
0.818343
20
109.39176
10
0.818343
20
109.39176
0
SPLINE
5
C6
100
AcDbEntity
8
Layer_1
6
ByLayer
62
7
370
-1
100
AcDbSpline
210
0
220
0
230
1
70
8
71
3
72
8
73
4
74
0
42
1e-07
43
1e-07
40
0
40
0
40
0
40
0
40
1
40
1
40
1
40
1
10
70.025543
20
116.128622
30
0
10
70.023567
20
118.925326
30
0
10
69.957891
20
120.239361
30
0
10
69.830076
20
120.041947
30
0
0
SPLINE
5
C7
100
AcDbEntity
8
Layer_1
6
ByLayer
62
7
370
-1
100
AcDbSpline
210
0
220
0
230
1
70
8
71
3
72
8
73
4
74
0
42
1e-07
43
1e-07
40
0
40
0
40
0
40
0
40
1
40
1
40
1
40
1
10
69.830076
20
120.041947
30
0
10
69.506305
20
119.541877
30
0
10
69.623376
20
111.918084
30
0
10
69.954829
20
111.918084
30
0
0
SPLINE
5
C8
100
AcDbEntity
8
Layer_1
6
ByLayer
62
7
370
-1
100
AcDbSpline
210
0
220
0
230
1
70
8
71
3
72
8
73
4
74
0
42
1e-07
43
1e-07
40
0
40
0
40
0
40
0
40
1
40
1
40
1
40
1
10
69.954829
20
111.918084
30
0
10
69.995387
20
111.918084
30
0
10
70.027211
20
113.812828
30
0
10
70.025543
20
116.128622
30
0
0
LWPOLYLINE
5
C9
100
AcDbEntity
8
Layer_1
6
ByLayer
62
7
370
-1
100
AcDbPolyline
90
2
70
1
43
0
10
0.809736
20
110.580619
10
0.809736
20
110.580619
0
LWPOLYLINE
5
CA
100
AcDbEntity
8
Layer_1
6
ByLayer
62
7
370
-1
100
AcDbPolyline
90
2
70
1
43
0
10
70.025543
20
116.128622
10
70.025543
20
116.128622
0
SPLINE
5
CB
100
AcDbEntity
8
Layer_1
6
ByLayer
62
7
370
-1
100
AcDbSpline
210
0
220
0
230
1
70
8
71
3
72
8
73
4
74
0
42
1e-07
43
1e-07
40
0
40
0
40
0
40
0
40
1
40
1
40
1
40
1
10
3.452521
20
134.750971
30
0
10
2.765663
20
134.346335
30
0
10
1.866689
20
133.263431
30
0
10
1.868117
20
132.842406
30
0
0
SPLINE
5
CC
100
AcDbEntity
8
Layer_1
6
ByLayer
62
7
370
-1
100
AcDbSpline
210
0
220
0
230
1
70
8
71
3
72
8
73
4
74
0
42
1e-07
43
1e-07
40
0
40
0
40
0
40
0
40
1
40
1
40
1
40
1
10
1.868117
20
132.842406
30
0
10
1.868399
20
132.722298
30
0
10
2.03631
20
132.898631
30
0
10
2.240972
20
133.234258
30
0
0
SPLINE
5
CD
100
AcDbEntity
8
Layer_1
6
ByLayer
62
7
370
-1
100
AcDbSpline
210
0
220
0
230
1
70
8
71
3
72
8
73
4
74
0
42
1e-07
43
1e-07
40
0
40
0
40
0
40
0
40
1
40
1
40
1
40
1
10
2.240972
20
133.234258
30
0
10
2.445634
20
133.569882
30
0
10
2.957997
20
134.140366
30
0
10
3.379555
20
134.502003
30
0
0
LWPOLYLINE
5
CE
100
AcDbEntity
8
Layer_1
6
ByLayer
62
7
370
-1
100
AcDbPolyline
90
3
70
1
43
0
10
3.379555
20
134.502003
10
4.14602
20
135.159527
10
3.452521
20
134.750971
0
SPLINE
5
CF
100
AcDbEntity
8
Layer_1
6
ByLayer
62
7
370
-1
100
AcDbSpline
210
0
220
0
230
1
70
8
71
3
72
8
73
4
74
0
42
1e-07
43
1e-07
40
0
40
0
40
0
40
0
40
1
40
1
40
1
40
1
10
65.959717
20
135.397378
30
0
10
64.468172
20
136.052755
30
0
10
60.044189
20
136.68084
30
0
10
53.110641
20
137.221592
30
0
0
SPLINE
5
D0
100
AcDbEntity
8
Layer_1
6
ByLayer
62
7
370
-1
100
AcDbSpline
210
0
220
0
230
1
70
8
71
3
72
8
73
4
74
0
42
1e-07
43
1e-07
40
0
40
0
40
0
40
0
40
1
40
1
40
1
40
1
10
53.110641
20
137.221592
30
0
10
49.558869
20
137.498596
30
0
10
46.324552
20
137.560809
30
0
10
36.047048
20
137.549822
30
0
0
SPLINE
5
D1
100
AcDbEntity
8
Layer_1
6
ByLayer
62
7
370
-1
100
AcDbSpline
210
0
220
0
230
1
70
8
71
3
72
8
73
4
74
0
42
1e-07
43
1e-07
40
0
40
0
40
0
40
0
40
1
40
1
40
1
40
1
10
36.047048
20
137.549822
30
0
10
28.551678
20
137.541807
30
0
10
22.474587
20
137.448719
30
0
10
21.186321
20
137.322187
30
0
0
SPLINE
5
D2
100
AcDbEntity
8
Layer_1
6
ByLayer
62
7
370
-1
100
AcDbSpline
210
0
220
0
230
1
70
8
71
3
72
8
73
4
74
0
42
1e-07
43
1e-07
40
0
40
0
40
0
40
0
40
1
40
1
40
1
40
1
10
21.186321
20
137.322187
30
0
10
19.165954
20
137.123751
30
0
10
19.310686
20
137.115087
30
0
10
23.16775
20
137.203609
30
0
0
SPLINE
5
D3
100
AcDbEntity
8
Layer_1
6
ByLayer
62
7
370
-1
100
AcDbSpline
210
0
220
0
230
1
70
8
71
3
72
8
73
4
74
0
42
1e-07
43
1e-07
40
0
40
0
40
0
40
0
40
1
40
1
40
1
40
1
10
23.16775
20
137.203609
30
0
10
34.764399
20
137.469759
30
0
10
49.370853
20
137.238991
30
0
10
55.762277
20
136.688655
30
0
0
SPLINE
5
D4
100
AcDbEntity
8
Layer_1
6
ByLayer
62
7
370
-1
100
AcDbSpline
210
0
220
0
230
1
70
8
71
3
72
8
73
4
74
0
42
1e-07
43
1e-07
40
0
40
0
40
0
40
0
40
1
40
1
40
1
40
1
10
55.762277
20
136.688655
30
0
10
60.129147
20
136.312642
30
0
10
65.729948
20
135.50263
30
0
10
66.028698
20
135.203881
30
0
0
SPLINE
5
D5
100
AcDbEntity
8
Layer_1
6
ByLayer
62
7
370
-1
100
AcDbSpline
210
0
220
0
230
1
70
8
71
3
72
8
73
4
74
0
42
1e-07
43
1e-07
40
0
40
0
40
0
40
0
40
1
40
1
40
1
40
1
10
66.028698
20
135.203881
30
0
10
66.085385
20
135.147197
30
0
10
66.228356
20
135.108092
30
0
10
66.346418
20
135.116979
30
0
0
SPLINE
5
D6
100
AcDbEntity
8
Layer_1
6
ByLayer
62
7
370
-1
100
AcDbSpline
210
0
220
0
230
1
70
8
71
3
72
8
73
4
74
0
42
1e-07
43
1e-07
40
0
40
0
40
0
40
0
40
1
40
1
40
1
40
1
10
66.346418
20
135.116979
30
0
10
66.464477
20
135.125869
30
0
10
66.290461
20
135.252048
30
0
10
65.959717
20
135.397378
30
0
0
LWPOLYLINE
5
D7
100
AcDbEntity
8
Layer_1
6
ByLayer
62
7
370
-1
100
AcDbPolyline
90
2
70
1
43
0
10
3.379555
20
134.502003
10
3.379555
20
134.502003
0
SPLINE
5
D8
100
AcDbEntity
8
Layer_1
6
ByLayer
62
7
370
-1
100
AcDbSpline
210
0
220
0
230
1
70
8
71
3
72
8
73
4
74
0
42
1e-07
43
1e-07
40
0
40
0
40
0
40
0
40
1
40
1
40
1
40
1
10
6.077907
20
135.628329
30
0
10
5.941681
20
135.683298
30
0
10
5.718771
20
135.683298
30
0
10
5.582548
20
135.628329
30
0
0
SPLINE
5
D9
100
AcDbEntity
8
Layer_1
6
ByLayer
62
7
370
-1
100
AcDbSpline
210
0
220
0
230
1
70
8
71
3
72
8
73
4
74
0
42
1e-07
43
1e-07
40
0
40
0
40
0
40
0
40
1
40
1
40
1
40
1
10
5.582548
20
135.628329
30
0
10
5.446325
20
135.573364
30
0
10
5.557769
20
135.528389
30
0
10
5.830226
20
135.528389
30
0
0
SPLINE
5
DA
100
AcDbEntity
8
Layer_1
6
ByLayer
62
7
370
-1
100
AcDbSpline
210
0
220
0
230
1
70
8
71
3
72
8
73
4
74
0
42
1e-07
43
1e-07
40
0
40
0
40
0
40
0
40
1
40
1
40
1
40
1
10
5.830226
20
135.528389
30
0
10
6.102675
20
135.528389
30
0
10
6.21413
20
135.573364
30
0
10
6.077907
20
135.628329
30
0
0
LWPOLYLINE
5
DB
100
AcDbEntity
8
Layer_1
6
ByLayer
62
7
370
-1
100
AcDbPolyline
90
2
70
1
43
0
10
65.959717
20
135.397378
10
65.959717
20
135.397378
0
LWPOLYLINE
5
DC
100
AcDbEntity
8
Layer_1
6
ByLayer
62
7
370
-1
100
AcDbPolyline
90
2
70
1
43
0
10
6.077907
20
135.628329
10
6.077907
20
135.628329
0
SPLINE
5
DD
100
AcDbEntity
8
Layer_1
6
ByLayer
62
7
370
-1
100
AcDbSpline
210
0
220
0
230
1
70
8
71
3
72
8
73
4
74
0
42
1e-07
43
1e-07
40
0
40
0
40
0
40
0
40
1
40
1
40
1
40
1
10
8.108872
20
136.044646
30
0
10
7.781937
20
136.044646
30
0
10
7.246951
20
135.97658
30
0
10
6.920013
20
135.893389
30
0
0
LWPOLYLINE
5
DE
100
AcDbEntity
8
Layer_1
6
ByLayer
62
7
370
-1
100
AcDbPolyline
90
3
70
1
43
0
10
8.108872
20
135.893389
10
8.703302
20
136.044646
10
8.108872
20
136.044646
0
SPLINE
5
DF
100
AcDbEntity
8
Layer_1
6
ByLayer
62
7
370
-1
100
AcDbSpline
210
0
220
0
230
1
70
8
71
3
72
8
73
4
74
0
42
1e-07
43
1e-07
40
0
40
0
40
0
40
0
40
1
40
1
40
1
40
1
10
6.920013
20
135.742132
30
0
10
7.246951
20
135.742132
30
0
10
7.781937
20
135.810199
30
0
10
8.108872
20
135.893389
30
0
0
LWPOLYLINE
5
E0
100
AcDbEntity
8
Layer_1
6
ByLayer
62
7
370
-1
100
AcDbPolyline
90
3
70
1
43
0
10
6.920013
20
135.893389
10
6.325586
20
135.742132
10
6.920013
20
135.742132
0
SPLINE
5
E1
100
AcDbEntity
8
Layer_1
6
ByLayer
62
7
370
-1
100
AcDbSpline
210
0
220
0
230
1
70
8
71
3
72
8
73
4
74
0
42
1e-07
43
1e-07
40
0
40
0
40
0
40
0
40
1
40
1
40
1
40
1
10
10.981945
20
136.279563
30
0
10
11.807786
20
136.426507
30
0
10
11.822408
20
136.438962
30
0
10
11.18009
20
136.448332
30
0
0
SPLINE
5
E2
100
AcDbEntity
8
Layer_1
6
ByLayer
62
7
370
-1
100
AcDbSpline
210
0
220
0
230
1
70
8
71
3
72
8
73
4
74
0
42
1e-07
43
1e-07
40
0
40
0
40
0
40
0
40
1
40
1
40
1
40
1
10
11.18009
20
136.448332
30
0
10
10.798664
20
136.453891
30
0
10
10.085347
20
136.38705
30
0
10
9.594944
20
136.299789
30
0
0
SPLINE
5
E3
100
AcDbEntity
8
Layer_1
6
ByLayer
62
7
370
-1
100
AcDbSpline
210
0
220
0
230
1
70
8
71
3
72
8
73
4
74
0
42
1e-07
43
1e-07
40
0
40
0
40
0
40
0
40
1
40
1
40
1
40
1
10
9.594944
20
136.299789
30
0
10
8.769105
20
136.152845
30
0
10
8.75448
20
136.140388
30
0
10
9.396801
20
136.131021
30
0
0
SPLINE
5
E4
100
AcDbEntity
8
Layer_1
6
ByLayer
62
7
370
-1
100
AcDbSpline
210
0
220
0
230
1
70
8
71
3
72
8
73
4
74
0
42
1e-07
43
1e-07
40
0
40
0
40
0
40
0
40
1
40
1
40
1
40
1
10
9.396801
20
136.131021
30
0
10
9.778227
20
136.125461
30
0
10
10.491541
20
136.192302
30
0
10
10.981945
20
136.279563
30
0
0
LWPOLYLINE
5
E5
100
AcDbEntity
8
Layer_1
6
ByLayer
62
7
370
-1
100
AcDbPolyline
90
2
70
1
43
0
10
8.108872
20
135.893389
10
8.108872
20
135.893389
0
SPLINE
5
E6
100
AcDbEntity
8
Layer_1
6
ByLayer
62
7
370
-1
100
AcDbSpline
210
0
220
0
230
1
70
8
71
3
72
8
73
4
74
0
42
1e-07
43
1e-07
40
0
40
0
40
0
40
0
40
1
40
1
40
1
40
1
10
17.619738
20
136.897976
30
0
10
18.677555
20
137.020308
30
0
10
18.465939
20
137.033325
30
0
10
16.728093
20
136.952821
30
0
0
SPLINE
5
E7
100
AcDbEntity
8
Layer_1
6
ByLayer
62
7
370
-1
100
AcDbSpline
210
0
220
0
230
1
70
8
71
3
72
8
73
4
74
0
42
1e-07
43
1e-07
40
0
40
0
40
0
40
0
40
1
40
1
40
1
40
1
10
16.728093
20
136.952821
30
0
10
15.474838
20
136.894768
30
0
10
13.869879
20
136.773559
30
0
10
13.161519
20
136.683473
30
0
0
SPLINE
5
E8
100
AcDbEntity
8
Layer_1
6
ByLayer
62
7
370
-1
100
AcDbSpline
210
0
220
0
230
1
70
8
71
3
72
8
73
4
74
0
42
1e-07
43
1e-07
40
0
40
0
40
0
40
0
40
1
40
1
40
1
40
1
10
13.161519
20
136.683473
30
0
10
12.187429
20
136.559592
30
0
10
12.4047
20
136.546229
30
0
10
14.053163
20
136.628629
30
0
0
SPLINE
5
E9
100
AcDbEntity
8
Layer_1
6
ByLayer
62
7
370
-1
100
AcDbSpline
210
0
220
0
230
1
70
8
71
3
72
8
73
4
74
0
42
1e-07
43
1e-07
40
0
40
0
40
0
40
0
40
1
40
1
40
1
40
1
10
14.053163
20
136.628629
30
0
10
15.251927
20
136.688551
30
0
10
16.856886
20
136.809757
30
0
10
17.619738
20
136.897976
30
0
0
LWPOLYLINE
5
EA
100
AcDbEntity
8
Layer_1
6
ByLayer
62
7
370
-1
100
AcDbPolyline
90
2
70
1
43
0
10
10.981945
20
136.279563
10
10.981945
20
136.279563
0
SPLINE
5
EB
100
AcDbEntity
8
Layer_1
6
ByLayer
62
7
370
-1
100
AcDbSpline
210
0
220
0
230
1
70
8
71
3
72
8
73
4
74
0
42
1e-07
43
1e-07
40
0
40
0
40
0
40
0
40
1
40
1
40
1
40
1
10
47.440261
20
1.63068
30
0
10
47.440261
20
1.673725
30
0
10
47.796919
20
1.742954
30
0
10
48.232834
20
1.784525
30
0
0
SPLINE
5
EC
100
AcDbEntity
8
Layer_1
6
ByLayer
62
7
370
-1
100
AcDbSpline
210
0
220
0
230
1
70
8
71
3
72
8
73
4
74
0
42
1e-07
43
1e-07
40
0
40
0
40
0
40
0
40
1
40
1
40
1
40
1
10
48.232834
20
1.784525
30
0
10
48.668749
20
1.826096
30
0
10
49.025404
20
1.790875
30
0
10
49.025404
20
1.706268
30
0
0
SPLINE
5
ED
100
AcDbEntity
8
Layer_1
6
ByLayer
62
7
370
-1
100
AcDbSpline
210
0
220
0
230
1
70
8
71
3
72
8
73
4
74
0
42
1e-07
43
1e-07
40
0
40
0
40
0
40
0
40
1
40
1
40
1
40
1
10
49.025404
20
1.706268
30
0
10
49.025404
20
1.621652
30
0
10
48.668749
20
1.552423
30
0
10
48.232834
20
1.552423
30
0
0
SPLINE
5
EE
100
AcDbEntity
8
Layer_1
6
ByLayer
62
7
370
-1
100
AcDbSpline
210
0
220
0
230
1
70
8
71
3
72
8
73
4
74
0
42
1e-07
43
1e-07
40
0
40
0
40
0
40
0
40
1
40
1
40
1
40
1
10
48.232834
20
1.552423
30
0
10
47.796919
20
1.552423
30
0
10
47.440261
20
1.587638
30
0
10
47.440261
20
1.63068
30
0
0
LWPOLYLINE
5
EF
100
AcDbEntity
8
Layer_1
6
ByLayer
62
7
370
-1
100
AcDbPolyline
90
2
70
1
43
0
10
17.619738
20
136.897976
10
17.619738
20
136.897976
0
SPLINE
5
F0
100
AcDbEntity
8
Layer_1
6
ByLayer
62
7
370
-1
100
AcDbSpline
210
0
220
0
230
1
70
8
71
3
72
8
73
4
74
0
42
1e-07
43
1e-07
40
0
40
0
40
0
40
0
40
1
40
1
40
1
40
1
10
18.266013
20
2.088848
30
0
10
18.512483
20
2.136242
30
0
10
18.869141
20
2.134441
30
0
10
19.058583
20
2.08484
30
0
0
SPLINE
5
F1
100
AcDbEntity
8
Layer_1
6
ByLayer
62
7
370
-1
100
AcDbSpline
210
0
220
0
230
1
70
8
71
3
72
8
73
4
74
0
42
1e-07
43
1e-07
40
0
40
0
40
0
40
0
40
1
40
1
40
1
40
1
10
19.058583
20
2.08484
30
0
10
19.248027
20
2.035246
30
0
10
19.046363
20
1.996468
30
0
10
18.610451
20
1.998667
30
0
0
SPLINE
5
F2
100
AcDbEntity
8
Layer_1
6
ByLayer
62
7
370
-1
100
AcDbSpline
210
0
220
0
230
1
70
8
71
3
72
8
73
4
74
0
42
1e-07
43
1e-07
40
0
40
0
40
0
40
0
40
1
40
1
40
1
40
1
10
18.610451
20
1.998667
30
0
10
18.174536
20
2.000925
30
0
10
18.019539
20
2.041443
30
0
10
18.266013
20
2.088837
30
0
0
LWPOLYLINE
5
F3
100
AcDbEntity
8
Layer_1
6
ByLayer
62
7
370
-1
100
AcDbPolyline
90
2
70
1
43
0
10
47.440261
20
1.63068
10
47.440261
20
1.63068
0
SPLINE
5
F4
100
AcDbEntity
8
Layer_1
6
ByLayer
62
7
370
-1
100
AcDbSpline
210
0
220
0
230
1
70
8
71
3
72
8
73
4
74
0
42
1e-07
43
1e-07
40
0
40
0
40
0
40
0
40
1
40
1
40
1
40
1
10
15.192486
20
2.283437
30
0
10
15.383197
20
2.333275
30
0
10
15.695273
20
2.333275
30
0
10
15.885985
20
2.283437
30
0
0
SPLINE
5
F5
100
AcDbEntity
8
Layer_1
6
ByLayer
62
7
370
-1
100
AcDbSpline
210
0
220
0
230
1
70
8
71
3
72
8
73
4
74
0
42
1e-07
43
1e-07
40
0
40
0
40
0
40
0
40
1
40
1
40
1
40
1
10
15.885985
20
2.283437
30
0
10
16.076699
20
2.2336
30
0
10
15.920661
20
2.192822
30
0
10
15.539235
20
2.192822
30
0
0
SPLINE
5
F6
100
AcDbEntity
8
Layer_1
6
ByLayer
62
7
370
-1
100
AcDbSpline
210
0
220
0
230
1
70
8
71
3
72
8
73
4
74
0
42
1e-07
43
1e-07
40
0
40
0
40
0
40
0
40
1
40
1
40
1
40
1
10
15.539235
20
2.192822
30
0
10
15.157809
20
2.192822
30
0
10
15.001771
20
2.2336
30
0
10
15.192486
20
2.283437
30
0
0
LWPOLYLINE
5
F7
100
AcDbEntity
8
Layer_1
6
ByLayer
62
7
370
-1
100
AcDbPolyline
90
2
70
1
43
0
10
18.266013
20
2.088837
10
18.266013
20
2.088848
0
SPLINE
5
F8
100
AcDbEntity
8
Layer_1
6
ByLayer
62
7
370
-1
100
AcDbSpline
210
0
220
0
230
1
70
8
71
3
72
8
73
4
74
0
42
1e-07
43
1e-07
40
0
40
0
40
0
40
0
40
1
40
1
40
1
40
1
10
8.963364
20
3.074777
30
0
10
9.106397
20
3.132015
30
0
10
9.277294
20
3.124976
30
0
10
9.343139
20
3.059142
30
0
0
SPLINE
5
F9
100
AcDbEntity
8
Layer_1
6
ByLayer
62
7
370
-1
100
AcDbSpline
210
0
220
0
230
1
70
8
71
3
72
8
73
4
74
0
42
1e-07
43
1e-07
40
0
40
0
40
0
40
0
40
1
40
1
40
1
40
1
10
9.343139
20
3.059142
30
0
10
9.408979
20
2.9933
30
0
10
9.29195
20
2.946468
30
0
10
9.083074
20
2.955073
30
0
0
SPLINE
5
FA
100
AcDbEntity
8
Layer_1
6
ByLayer
62
7
370
-1
100
AcDbSpline
210
0
220
0
230
1
70
8
71
3
72
8
73
4
74
0
42
1e-07
43
1e-07
40
0
40
0
40
0
40
0
40
1
40
1
40
1
40
1
10
9.083074
20
2.955073
30
0
10
8.852248
20
2.964584
30
0
10
8.8053
20
3.011531
30
0
10
8.963364
20
3.074783
30
0
0
LWPOLYLINE
5
FB
100
AcDbEntity
8
Layer_1
6
ByLayer
62
7
370
-1
100
AcDbPolyline
90
2
70
1
43
0
10
15.192486
20
2.283437
10
15.192486
20
2.283437
0
LWPOLYLINE
5
FC
100
AcDbEntity
8
Layer_1
6
ByLayer
62
7
370
-1
100
AcDbPolyline
90
2
70
1
43
0
10
8.963364
20
3.074783
10
8.963364
20
3.074777
0
ENDBLK
5
53
330
51
100
AcDbEntity
8
0
100
AcDbBlockEnd
0
ENDSEC
0
SECTION
2
ENTITIES
0
LINE
5
FD
100
AcDbEntity
8
0
6
ByLayer
62
256
370
-1
100
AcDbLine
10
0
20
0
11
69.17
21
0
0
LINE
5
FE
100
AcDbEntity
8
0
6
ByLayer
62
256
370
-1
100
AcDbLine
10
69.17
20
0
11
69.17
21
137.84
0
LINE
5
FF
100
AcDbEntity
8
0
6
ByLayer
62
256
370
-1
100
AcDbLine
10
69.17
20
137.84
11
0
21
137.84
0
LINE
5
100
100
AcDbEntity
8
0
6
ByLayer
62
256
370
-1
100
AcDbLine
10
0
20
137.84
11
0
21
0
0
INSERT
5
101
100
AcDbEntity
8
0
6
ByLayer
62
256
370
-1
100
AcDbBlockReference
2
outline-0
10
-0.8
20
-0.3
30
0
41
1
42
1
43
0
50
0
70
1
71
1
44
0
45
0
0
LINE
5
102
100
AcDbEntity
8
new
6
ByLayer
62
256
370
-1
100
AcDbLine
10
34.585
20
137.84
11
34.585
21
147.84
0
CIRCLE
5
103
100
AcDbEntity
8
new
6
ByLayer
62
256
370
-1
100
AcDbCircle
10
35.9201084443
20
-195.020692101
40
332.863362014
0
DIMENSION
5
104
100
AcDbEntity
8
new
6
ByLayer
62
256
370
-1
100
AcDbDimension
2
*D1
10
35.9201084443
20
-195.020692101
30
0
11
117.642469326
21
-50.022499699
31
0
70
36
71
5
3
Standard
53
0
210
0
220
0
230
1
100
AcDbRadialDimension
15
202.610739419
25
93.0977754025
35
0
40
0
0
LINE
5
105
100
AcDbEntity
8
new
6
ByLayer
62
256
370
-1
100
AcDbLine
10
95.6825600001
20
51.5375104001
11
95.6825600001
21
156.8
0
LINE
5
106
100
AcDbEntity
8
new
6
ByLayer
62
256
370
-1
100
AcDbLine
10
104.045582746
20
137.116830925
11
95.6825600001
21
138.056355021
0
DIMENSION
5
107
100
AcDbEntity
8
new
6
ByLayer
62
256
370
-1
100
AcDbDimension
2
*D2
10
95.6825600001
20
51.5375104001
30
0
11
0
21
0
31
0
70
34
71
5
3
Standard
53
0
210
0
220
0
230
1
100
AcDb2LineAngularDimension
13
95.6825600001
23
138.056355021
33
0
14
104.045582746
24
137.116830925
34
0
15
95.6825600001
25
156.8
35
0
16
113.822155834
26
128.598356757
36
0
0
CIRCLE
5
108
100
AcDbEntity
8
new
6
ByLayer
62
256
370
-1
100
AcDbCircle
10
98.8887239511
20
134.46983328
40
3.20616395094
0
DIMENSION
5
109
100
AcDbEntity
8
new
6
ByLayer
62
256
370
-1
100
AcDbDimension
2
*D3
10
98.8887239511
20
134.46983328
30
0
11
90.5183637229
21
141.186975298
31
0
70
36
71
5
3
Standard
53
0
210
0
220
0
230
1
100
AcDbRadialDimension
15
96.0760521231
25
136.008782424
35
0
40
0
0
ENDSEC
0
SECTION
2
OBJECTS
0
DICTIONARY
5
C
330
0
100
AcDbDictionary
281
1
3
ACAD_GROUP
350
D
0
DICTIONARY
5
D
330
C
100
AcDbDictionary
281
1
0
ENDSEC
0
EOF
